# xmcd
#
# Track frame offsets:
#	150
#	11197
#	20622
#	29890
#	40868
#	51903
#	63195
#	73853
#	84213
#	97007
#	107754
#	121537
#	135049
#	146540
#	163055
#	177527
#	191218
#	203308
#	215791
#	232097
#
# Disc length: 3246 seconds
#
# Revision: 0
# Processed by: cddbd v1.5.2PL0 Copyright (c) Steve Scherf et al.
# Submitted via: EasyCDDAExtractor 9.1.3.1
#
DISCID=200cac14
DTITLE=Waylon Jennings - The Essential Waylon Jennings [CD1]
DYEAR=2007
DGENRE=Country
TTITLE0=Big Mamou
TTITLE1=That's the Chance I'll Have to Take
TTITLE2=Stop the World (and Let Me Off)
TTITLE3=Anita, You're Dreaming
TTITLE4=(That's What You Get) For Lovin' Me
TTITLE5=The Chokin' Kind
TTITLE6=Only Daddy That'll Walk the Line
TTITLE7=Just to Satisfy You
TTITLE8=Cedartown, Georgia
TTITLE9=The Taker
TTITLE10=Lovin' Her Was Easier (Than Anything I'll Ever Do Again)
TTITLE11=Sweet Dream Woman
TTITLE12=Ladies Love Outlaws
TTITLE13=Lonesome On'ry and Mean
TTITLE14=Freedom to Stay
TTITLE15=Pretend I Never Happened
TTITLE16=You Can Have Her
TTITLE17=We Had It All
TTITLE18=Honky Tonk Heroes
TTITLE19=You Ask Me To
EXTD=
EXTT0=
EXTT1=
EXTT2=
EXTT3=
EXTT4=
EXTT5=
EXTT6=
EXTT7=
EXTT8=
EXTT9=
EXTT10=
EXTT11=
EXTT12=
EXTT13=
EXTT14=
EXTT15=
EXTT16=
EXTT17=
EXTT18=
EXTT19=
PLAYORDER=
